<svg xmlns="http://www.w3.org/2000/svg">
  <symbol id="vk" viewBox="0 0 22 12">
    <path d="M17.6 12c-.3 0-.9-.1-1.5-.5-.5-.3-.9-.7-1.3-1.2-.3-.3-.9-.9-1.1-.9-.2.1-.4.7-.3 1.2 0 .1 0 .6-.3.9-.3.3-.8.4-.9.4h-1.4c-.7 0-3.2-.2-5.4-2.3C2.5 7.1.2 2.2.1 2 0 1.6-.1 1.2.2.9s.8-.4 1-.4h3.1c.1 0 .4.1.7.3.3.2.4.5.5.6.7 1.5 1.5 2.8 2.6 4 .1-.4.2-1.4.1-2.3 0-.4-.1-.8-.2-1-.1-.1-.3-.2-.5-.2l-.6-.5c0-.5.5-.9.9-1.1.5-.2 1.3-.3 2.3-.3h.5c.9 0 1.2.1 1.6.1 1.2.3 1.2 1.3 1.1 2.5v1.6c0 .3 0 .8.1 1 .2-.1.6-.5 1.5-1.9.6-.9 1-1.9 1.1-2.1.1-.3.4-.7 1.2-.7h3.4c.7 0 1.2.2 1.3.7.2.5.1 1.3-1.7 3.5-.3.3-.5.6-.7.9-.5.4-.9 1-.9 1.1s.5.5.9.9c1.1.9 1.9 1.7 2.2 2.3.4.6.3 1 .2 1.3-.3.7-1.2.7-1.4.8h-2.8-.1zm-3.9-3.7c.7 0 1.2.6 1.8 1.2.4.4.7.8 1.1 1 .5.3 1 .3 1 .3h2.9c.1 0 .3-.1.4-.1 0 0 0-.1-.1-.1-.3-.5-1-1.3-2-2.1-.9-.7-1.3-1.1-1.4-1.7 0-.6.4-1.1 1.2-2.1.2-.2.4-.5.7-.8 1.1-1.4 1.4-2 1.5-2.3h-3.9c0 .4-.5 1.5-1.1 2.4-1.4 2.1-2 2.4-2.5 2.4-.1 0-.3 0-.4-.1-.7-.4-.7-1.4-.7-2.1V2.6c.1-1.3 0-1.3-.3-1.4-.3-.1-.5-.1-1.4-.1H10c-.5 0-1 0-1.4.1l.2.2c.4.5.4 1.5.4 1.7.1 1.3 0 2.9-.7 3.3-.1 0-.2.1-.4.1-.6 0-1.3-.7-2.5-2.5C5 2.9 4.5 1.8 4.5 1.8s0-.1-.1-.1-.2-.1-.2-.1h-3c.4.9 2.5 5 4.8 7.2 2 1.9 4.3 2 4.7 2h1.4s.2 0 .2-.1v-.1c0-.2 0-2 1.2-2.3h.2z" />
  </symbol>
  <symbol id="ins" viewbox="0 0 22.99 23">
    <path d="M17,1.5A4.51,4.51,0,0,1,21.5,6V17A4.51,4.51,0,0,1,17,21.5H6A4.51,4.51,0,0,1,1.51,17V6A4.51,4.51,0,0,1,6,1.5H17M17,0H6A6,6,0,0,0,0,6V17a6,6,0,0,0,6,6H17a6,6,0,0,0,6-6V6a6,6,0,0,0-6-6Z" />
    <path d="M11.51,7.08a4.43,4.43,0,1,1-4.43,4.43,4.42,4.42,0,0,1,4.43-4.43m0-1.5a5.93,5.93,0,1,0,5.92,5.93,5.92,5.92,0,0,0-5.92-5.93Z" />
    <circle cx="17.63" cy="5.38" r="1.34" />
  </symbol>
  <symbol id="fb" viewbox="0 0 13.52 27.75">
    <path d="M9.53,27.75H2.71V14.85H0V8.47H2.63c-.2-2.88.3-5,1.52-6.44A6.21,6.21,0,0,1,8.74,0h4.78V6.15H9.76a6.55,6.55,0,0,0-.25,2.32h4v6.38h-4Zm-5.31-1.5H8V13.35h4V10H8V9.24c0-2,0-3.79,1-4.46l.19-.13H12V1.5H8.78A4.67,4.67,0,0,0,5.29,3c-1,1.23-1.41,3.3-1.1,6.14l.1.83H1.5v3.38H4.22Z" />
  </symbol>
  <symbol id="logo-academy" viewbox="0 0 26.95 34.09">
    <path d="M13.62,0l-.15,0L0,1.41V26.07l13.47,8,13.43-8,.05,0V1.41ZM25,12.13,13.5,5.33v-.1l-.08,0-.09-.06v.11L1.92,12.12v-9L13.47,1.93,25,3.15v9ZM13.41,6.79,24.92,13.5l-4.48,2.64-7.09-4.22v1.41l5.9,3.52-.86.5-5-3v1.42l3.82,2.27-.78.53-3-1.79V18.2l1.85,1.09-1.8,1.08L2,13.62ZM1.92,15.13l11.42,6.79v1L5.41,18.23v1.42l8,4.8,0,1.07-8-4.74V22.2l8,4.82,0,0,8.15-4.87V17L25,15V25L13.47,31.85,1.92,25Z" />
  </symbol>
  <symbol id="cat-slim" viewBox="0 0 70 97">
    <path d="M54.84,0h-.38A3.5,3.5,0,0,0,53,1.59,15.54,15.54,0,0,0,51.71,5a1.63,1.63,0,0,1-1.48,1.34A7.34,7.34,0,0,0,45,10.12a27.31,27.31,0,0,0-1.85,4c-1.42,3.68-2.51,7.48-3.85,11.19C38.67,27,38.64,27,36.74,27c-2.27,0-2.11-.35-2.14,2.15,0,.79.24,1.19,1.08,1.15.26,0,.65-.13.75.21s-.24.49-.44.69a9,9,0,0,1-4.33,2.44c-1.9.51-3.84.91-5.69,1.53-4.75,1.59-9.14,3.81-12.56,7.57a28,28,0,0,0-4.74,7.84C5,59.22,3.22,68.32,1.84,77.51c-.65,4.31-1.11,8.64-1.46,13C.2,92.65,0,94.82,0,97H33.33a2.18,2.18,0,0,0-.23-1.28,5,5,0,0,0-3.83-3.07c-.7-.16-.78-.37-.35-.92a10.35,10.35,0,0,0,1.59-3.1c1.63-4.81,2.26-9.83,3.05-14.8A30,30,0,0,1,37,63a21.6,21.6,0,0,1,5.59-6.37c.83-.63.86-.63,1,.44.1.71.12,1.44.17,2.16a93.23,93.23,0,0,1-.18,14.18,61.67,61.67,0,0,0-.15,11A75.17,75.17,0,0,0,45.7,97H59a5.41,5.41,0,0,0-4.24-4.44,9,9,0,0,0-3.76.2c-.6.14-.85,0-.9-.65a56.35,56.35,0,0,1,1-15.82,177.73,177.73,0,0,0,3.06-18.18,17.75,17.75,0,0,1,2.28-7c1.19-2.12,2.23-4.32,3.4-6.45a5.87,5.87,0,0,0,.42-5.19c-.27-.71-.53-1.43-.86-2.11-1-1.95-2-3.88-2.92-5.85-.49-1-.38-1.12.71-1.15,1.63,0,1.63,0,1.66-1.64,0-.22,0-.44,0-.66,0-.69-.26-1.07-1-1-.5,0-1,0-1.52,0-.69,0-.89-.29-.72-1a6.24,6.24,0,0,1,5.13-4.43,22,22,0,0,1,6.62.43,1,1,0,0,0,1.25-.64c.4-1,.84-2,1.29-3a1,1,0,0,0-.1-1.14C66.6,13.22,63.13,9.43,58.4,7a1.49,1.49,0,0,1-.88-1.12,19.6,19.6,0,0,0-1.27-4.16A3.5,3.5,0,0,0,54.84,0Z" />
  </symbol>
  <symbol id="cat-pro" viewBox="0 0 134.07 56.16">
    <path d="M123.1,5.8a15.2,15.2,0,0,1,4.5-4.6c1-.7,1.6-.7,2.2.6.8,1.9,1.5,3.9.9,6a2.29,2.29,0,0,0,.4,2.1c.6.8,1.1,1.6,1.6,2.3a6.27,6.27,0,0,1,.9,6.2,5.43,5.43,0,0,0-.2,3.1,7.58,7.58,0,0,1,0,3,3.75,3.75,0,0,1-2.7,3.2,5.21,5.21,0,0,0-3.2,2,1.05,1.05,0,0,1-.9.5c-1.2.2-4.2-2.5-4.2-3.7v-.6c.1-3.6-.1-3.9-3.4-5.4a4.39,4.39,0,0,1-1.8-1.2c-.6-.8-1.4-.7-2.3-.4s-1.4.9-1.3,1.9a44.14,44.14,0,0,1,.3,7.3,1.88,1.88,0,0,0,.2.8c3.1,4.5,4.3,9.8,5.8,14.9,1.2,3.9,3.4,6,7.4,6.3a12.5,12.5,0,0,1,1.9.3,4.16,4.16,0,0,1,3.4,3.2c.7,2.1.3,2.6-1.8,2.6h-6.5a3.24,3.24,0,0,1-2.3-.8,11.71,11.71,0,0,0-3.4-2,7.26,7.26,0,0,1-3.4-2.6,28.61,28.61,0,0,0-4-4.5c-2.8-2.9-5.8-5.7-8.4-8.7A11.38,11.38,0,0,1,99.6,30c0-.9-.2-1.3-1.2-.9a1.93,1.93,0,0,1-1,.3c-2.8,0-4.2,1.7-5.2,4.2-.9,2.1-2.1,4.1-3.2,6.2A10.39,10.39,0,0,0,88,44c0,2.4.6,3.2,2.8,4,1.4.5,2.7,1,3.4,2.4.8,1.6.6,2-1.1,2.1H86.3a1.88,1.88,0,0,1-1.9-1.1l-1.8-3a6.05,6.05,0,0,1-.7-5.4,11.86,11.86,0,0,0,.1-5.3,8.42,8.42,0,0,1,1.7-7c.6-.7.6-1-.4-1.2a50.06,50.06,0,0,1-11.8-4.1.1.1,0,0,1-.1-.1c-3.2-1.2-3.8-1-4.7,2.3-.8,2.8-1.6,5.6-2.2,8.5-.7,3.2.1,6.2,1.1,9.2.4,1.2,1.6,1.1,2.5,1.4,2,.6,3.7,1.4,4.5,3.5.7,1.6.6,1.8-1.1,1.8s-3.4-.1-5.2,0a6.64,6.64,0,0,1-4.2-1.4c-4.8-3.2-6.2-8.1-6.6-13.4-.2-3.3-2-5.9-4.1-8.4-.4-.5-.8-.7-1.4-.3a44.32,44.32,0,0,1-6.7,3,26.71,26.71,0,0,0-12.2,8.8,10.63,10.63,0,0,0-2.2,5.1c-.3,1.8.2,2.6,2,3.1s2.7,1.5,2.9,3.4c.1.8-.2,1.2-1,1.2H24.7a1.65,1.65,0,0,1-1.3-.8,8.56,8.56,0,0,1-1.9-5.5,50.6,50.6,0,0,1,.9-10.3,6.3,6.3,0,0,1,3.4-4.8c5.9-2.8,9-8.1,11.8-13.6.6-1.1.1-1.3-.9-1.2A16.47,16.47,0,0,0,29,20.1a70.62,70.62,0,0,0-8.3,7.1,16.67,16.67,0,0,1-10.3,4.9C3.1,32.5-.3,28.4,0,21.8a9.69,9.69,0,0,1,2.4-6.1,4.25,4.25,0,0,1,4.5-1.5c1.5.4,1.9,1.2,1.3,2.7-.3.6-.7,1.1-1,1.7a7.5,7.5,0,0,0-1,2c-1.1,3,.4,5.1,3.5,5.4,3.3.3,6-1.1,8.5-3.1a44.94,44.94,0,0,0,8-8.3A20.79,20.79,0,0,1,40.6,6.5c2.3-.3,4.3-1.3,6.5-1.9A41.51,41.51,0,0,1,59.8,2.8a13,13,0,0,0,5.8-1.1c4.9-2,10-2,15.1-1,4,.8,8,1.8,11.9,2.8a16.58,16.58,0,0,0,7-.2,67.79,67.79,0,0,1,13.4-2A18.16,18.16,0,0,1,121.6,3C123.6,3.9,123.6,3.9,123.1,5.8Z" transform="translate(0.02 -0.04)"/>
  </symbol>
  <symbol id="gift" viewbox="0 0 55.5 60">
    <path fill="#fff" d="M52.3,12.2h-7c0.5-0.7,0.8-1.4,1.1-2.2c0.6-2,0.4-4.1-0.6-5.9c-1-1.8-2.6-3.1-4.6-3.7c-2-0.6-4.1-0.4-5.9,0.6c-3.6,2-6.2,6.1-7.6,9c-1.4-2.9-4-7.1-7.6-9c-3.8-2-8.5-0.6-10.5,3.1c-1.4,2.7-1.2,5.8,0.5,8.1h-7c-1.7,0-3.1,1.4-3.1,3.1v9.4c0,1.7,1.4,3.1,3.1,3.1H4v26.1c0,3.3,2.7,6,6,6h35.5c3.3,0,6-2.7,6-6V27.8h0.8c1.7,0,3.1-1.4,3.1-3.1v-9.4C55.5,13.6,54.1,12.2,52.3,12.2z M36.5,3c1.3-0.7,2.7-0.8,4.1-0.4C41.9,3,43,3.9,43.7,5.2c0.7,1.3,0.8,2.7,0.4,4.1c-0.4,1.2-1.1,2.2-2.2,2.9H29.4C30.5,9.6,33,5,36.5,3z M11.7,5.2C13.2,2.6,16.4,1.6,19,3c3.5,1.9,6,6.6,7.1,9.1H13.5C11.2,10.7,10.4,7.6,11.7,5.2z M26.5,27.8v13.7H6.4V27.8H26.5z M6.4,53.9v-10h20.2v13.7H10C8,57.6,6.4,55.9,6.4,53.9z M45.5,57.6H28.9V43.9h20.2v10C49.1,55.9,47.5,57.6,45.5,57.6z M49.1,41.5H28.9V27.8h20.2V41.5z M53.1,24.7c0,0.4-0.3,0.7-0.7,0.7h-2c0,0,0,0,0,0s0,0,0,0H27.7c0,0,0,0,0,0s0,0,0,0H5.2c0,0,0,0,0,0s0,0,0,0h-2c-0.4,0-0.7-0.3-0.7-0.7v-9.4c0-0.4,0.3-0.7,0.7-0.7h49.2c0.4,0,0.7,0.3,0.7,0.7V24.7z"/>
  </symbol>
  <symbol id="email" viewbox="0 0 17 13">
    <path d="M15.6,11.6H1.4V5.8H0V13h17V5.8h-1.4V11.6z M0,0v2.3l8.5,7.1L17,2.3V0H0z M15.6,1.6L8.5,7.5L1.4,1.6V1.4h14.2L15.6,1.6z" />
  </symbol>
  <symbol id="tel" viewbox="0 0 20 20">
    <path d="M17.9,9.4H9.4v1.2h8.5l-2.1,2.1l0.9,0.9l3.1-3.1c0.2-0.2,0.2-0.6,0-0.9l-3.1-3.1l-0.9,0.9L17.9,9.4z"/>
    <path d="M8.1,19.4v-6.2c0-0.3-0.3-0.6-0.6-0.6H4.4l0,0H3.1l0,0c0,0.7,0.6,1.2,1.2,1.2h2.5v5H3.1c-1,0.1-1.8-0.7-1.9-1.7c0-0.1,0-0.1,0-0.2V3.1c0-1,0.8-1.8,1.7-1.8c0.1,0,0.1,0,0.2,0h3.7v5H4.4c-0.7,0-1.2,0.6-1.2,1.2h4.4c0.3,0,0.6-0.3,0.6-0.6V0.6C8.1,0.3,7.8,0,7.5,0H3.1C1.5-0.1,0.1,1.2,0,2.9C0,3,0,3.1,0,3.1v13.7c-0.1,1.7,1.2,3.1,2.9,3.1c0.1,0,0.2,0,0.2,0h4.4C7.8,20,8.1,19.7,8.1,19.4z"/>
  </symbol>
</svg>
